<?xml version="1.0" ?>
  <svg viewBox="0 0 64 64" xmlns="http://www.w3.org/2000/svg">
  <title/>  
    <g id="Icons">
      <path d="M27,31H37a1,1,0,0,0,0-2H27a1,1,0,0,0,0,2Z" style="fill:none"/>
      <path d="M41.973,26.63c-.017,1.878.265,5.128,1.558,7.22L46,24.86v-.24l-2,1Z" style="fill:none"/>
      <path d="M22.91,24.78l9-.78c.03,0,.06.01.09.01s.06-.01.09-.01l9,.78c.028,0,.05.018.077.023L44,23.39V17.848a10.9,10.9,0,0,1-2.96-4.558c-.01-.05-.11-.39-.66-2.64a58.054,58.054,0,0,1-12.02,6.28,59.378,59.378,0,0,1-8.36,2.5V23.39L22.833,24.8C22.86,24.8,22.882,24.783,22.91,24.78Z" style="fill:none"/>
      <path d="M38,33a1,1,0,0,0-1-1H27a1,1,0,0,0,0,2H37A1,1,0,0,0,38,33Z" style="fill:none"/>
      <path d="M20,25.62l-2-1v.24l2.469,8.99c1.293-2.092,1.575-5.342,1.558-7.22Z" style="fill:none"/>
      <path d="M37.058,39.562a29.424,29.424,0,0,1-10.116,0c.035.478.058.957.058,1.438a19.169,19.169,0,0,1-.97,6.06v.01a6.08,6.08,0,0,0,11.94,0v-.01A19.169,19.169,0,0,1,37,41C37,40.519,37.023,40.04,37.058,39.562Z" style="fill:none"/>
      <path d="M59.87,62.41l-2.46-8.6a8.979,8.979,0,0,0-7.53-6.46L39.76,46.09A17.531,17.531,0,0,1,39,41a17.336,17.336,0,0,1,.116-1.9,16.659,16.659,0,0,0,5.478-2.413l.01-.008.006,0c.005,0,.006-.01.011-.014a.977.977,0,0,0,.232-.281.964.964,0,0,0,.067-.146c.011-.031.031-.056.04-.089l3-10.88A.842.842,0,0,0,48,25V23a1,1,0,0,0-1.45-.89l-.55.28V19.51c.148.106.286.215.44.32a.98.98,0,0,0,1.03.05A1,1,0,0,0,48,19V16a16,16,0,0,0-32,0v3a1,1,0,0,0,1,1,.97.97,0,0,0,.17-.01c.278-.047.553-.111.83-.163V22.39l-.55-.28A1,1,0,0,0,16,23v2a.842.842,0,0,0,.04.27l3,10.88c.009.033.029.058.04.089a.964.964,0,0,0,.067.146.977.977,0,0,0,.232.281s.006.01.011.014l.006,0,.01.008A16.659,16.659,0,0,0,24.884,39.1,17.336,17.336,0,0,1,25,41a17.531,17.531,0,0,1-.76,5.09L14.12,47.35a8.979,8.979,0,0,0-7.53,6.46L4.04,62.73a.97.97,0,0,0,.16.87A1.014,1.014,0,0,0,5,64h9V61a1,1,0,0,1,2,0v3H48V61a1,1,0,0,1,2,0v3h9.07a.992.992,0,0,0,.8-1.59ZM26,33a1,1,0,0,1,1-1H37a1,1,0,0,1,0,2H27A1,1,0,0,1,26,33Zm0-3a1,1,0,0,1,1-1H37a1,1,0,0,1,0,2H27A1,1,0,0,1,26,30Zm20-5.14-2.469,8.99c-1.293-2.092-1.575-5.342-1.558-7.22L44,25.62l2-1ZM20,19.435a59.378,59.378,0,0,0,8.36-2.5,58.054,58.054,0,0,0,12.02-6.28c.55,2.25.65,2.59.66,2.64A10.9,10.9,0,0,0,44,17.848V23.39L41.167,24.8c-.027-.005-.049-.02-.077-.023l-9-.78c-.03,0-.06.01-.09.01s-.06-.01-.09-.01l-9,.78c-.028,0-.05.018-.077.023L20,23.39Zm.469,14.415L18,24.86v-.24l2,1,2.027,1.01C22.044,28.508,21.762,31.758,20.469,33.85Zm17.5,13.22a6.08,6.08,0,0,1-11.94,0v-.01A19.169,19.169,0,0,0,27,41c0-.481-.023-.96-.058-1.438a29.424,29.424,0,0,0,10.116,0C37.023,40.04,37,40.519,37,41a19.169,19.169,0,0,0,.97,6.06Z" style="fill:#727172"/>
    </g>
  </svg>